STARTFONT 2.1
FONT matty.tech
SIZE 15 72 72
FONTBOUNDINGBOX 13 15 0 -3
STARTPROPERTIES 4
FONT_DESCENT 3
FONT_ASCENT 12
DEFAULT_CHAR 2
COPYRIGHT "Copyright (c) 1993 James Matthew Farrow - All rights reserved."
ENDPROPERTIES
CHARS 43
STARTCHAR ch-2
ENCODING 2
SWIDTH 600 0
DWIDTH 9 0
BBX 9 15 0 -3
BITMAP
0000
0000
0000
0000
0800
1400
2200
4100
4100
4100
4100
7f00
0000
0000
0000
ENDCHAR
STARTCHAR ch-3
ENCODING 3
SWIDTH 600 0
DWIDTH 9 0
BBX 9 15 0 -3
BITMAP
0000
0000
0000
0000
0000
0800
1400
2200
4100
0000
0000
0000
0000
0000
0000
ENDCHAR
STARTCHAR ch-4
ENCODING 4
SWIDTH 600 0
DWIDTH 9 0
BBX 9 15 0 -3
BITMAP
0000
0000
0000
0000
0000
0000
4100
2200
1400
0800
0000
0000
0000
0000
0000
ENDCHAR
STARTCHAR ch-5
ENCODING 5
SWIDTH 600 0
DWIDTH 9 0
BBX 9 15 0 -3
BITMAP
0000
0000
0000
7f00
0000
0800
1400
2200
4100
0000
0000
0000
0000
0000
0000
ENDCHAR
STARTCHAR ch-6
ENCODING 6
SWIDTH 600 0
DWIDTH 9 0
BBX 9 15 0 -3
BITMAP
0000
7f00
0000
7f00
0000
0800
1400
2200
4100
0000
0000
0000
0000
0000
0000
ENDCHAR
STARTCHAR ch-7
ENCODING 7
SWIDTH 600 0
DWIDTH 9 0
BBX 9 15 0 -3
BITMAP
0000
0800
0400
0800
1000
2000
1000
0800
0400
0800
1000
2000
1000
0800
0000
ENDCHAR
STARTCHAR ch-8
ENCODING 8
SWIDTH 600 0
DWIDTH 9 0
BBX 9 15 0 -3
BITMAP
0000
0000
3e00
3000
3000
3000
3000
3000
3000
3000
3000
3000
3000
3000
0000
ENDCHAR
STARTCHAR ch-9
ENCODING 9
SWIDTH 600 0
DWIDTH 9 0
BBX 9 15 0 -3
BITMAP
0000
0000
3e00
0600
0600
0600
0600
0600
0600
0600
0600
0600
0600
0600
0000
ENDCHAR
STARTCHAR ch-10
ENCODING 10
SWIDTH 600 0
DWIDTH 9 0
BBX 9 15 0 -3
BITMAP
0000
3000
3000
3000
3000
3000
3000
3000
3000
3000
3000
3000
3e00
0000
0000
ENDCHAR
STARTCHAR ch-11
ENCODING 11
SWIDTH 600 0
DWIDTH 9 0
BBX 9 15 0 -3
BITMAP
0000
0600
0600
0600
0600
0600
0600
0600
0600
0600
0600
0600
3e00
0000
0000
ENDCHAR
STARTCHAR ch-12
ENCODING 12
SWIDTH 600 0
DWIDTH 9 0
BBX 9 15 0 -3
BITMAP
0000
0000
0000
0000
0000
0000
0f80
0800
0800
0800
0800
0000
0000
0000
0000
ENDCHAR
STARTCHAR ch-13
ENCODING 13
SWIDTH 600 0
DWIDTH 9 0
BBX 9 15 0 -3
BITMAP
0000
0000
0000
0000
0000
0000
f800
0800
0800
0800
0800
0000
0000
0000
0000
ENDCHAR
STARTCHAR ch-14
ENCODING 14
SWIDTH 600 0
DWIDTH 9 0
BBX 9 15 0 -3
BITMAP
0000
0000
0800
0800
0800
0800
0f80
0000
0000
0000
0000
0000
0000
0000
0000
ENDCHAR
STARTCHAR ch-15
ENCODING 15
SWIDTH 600 0
DWIDTH 9 0
BBX 9 15 0 -3
BITMAP
0000
0000
0800
0800
0800
0800
f800
0000
0000
0000
0000
0000
0000
0000
0000
ENDCHAR
STARTCHAR ch-16
ENCODING 16
SWIDTH 600 0
DWIDTH 9 0
BBX 9 15 0 -3
BITMAP
0000
0000
0000
0000
0000
7f00
4000
4000
4000
0000
0000
0000
0000
0000
0000
ENDCHAR
STARTCHAR ch-17
ENCODING 17
SWIDTH 666 0
DWIDTH 10 0
BBX 10 15 0 -3
BITMAP
0000
0000
0000
e380
9c80
8080
4100
4100
4100
8080
9c80
e380
0000
0000
0000
ENDCHAR
STARTCHAR ch-18
ENCODING 18
SWIDTH 800 0
DWIDTH 12 0
BBX 12 15 0 -3
BITMAP
0000
0000
0000
0e00
3b80
60c0
4040
c060
8020
0000
0000
0000
0000
0000
0000
ENDCHAR
STARTCHAR ch-19
ENCODING 19
SWIDTH 800 0
DWIDTH 12 0
BBX 12 15 0 -3
BITMAP
0000
0000
0000
0e00
3b80
60c0
4040
c060
ffe0
0000
0000
0000
0000
0000
0000
ENDCHAR
STARTCHAR ch-20
ENCODING 20
SWIDTH 800 0
DWIDTH 12 0
BBX 12 15 0 -3
BITMAP
0000
0000
0e00
3b80
60c0
c060
60c0
3180
1b00
0e00
0400
0000
0000
0000
0000
ENDCHAR
STARTCHAR ch-21
ENCODING 21
SWIDTH 866 0
DWIDTH 13 0
BBX 13 15 0 -3
BITMAP
0000
0700
1dc0
3060
2020
6030
4010
6030
2020
3060
7dc0
e700
c000
0000
0000
ENDCHAR
STARTCHAR ch-22
ENCODING 22
SWIDTH 800 0
DWIDTH 12 0
BBX 12 15 0 -3
BITMAP
0000
0000
0400
0400
0e00
1500
2480
ffe0
2480
1500
0e00
0400
0400
0000
0000
ENDCHAR
STARTCHAR ch-23
ENCODING 23
SWIDTH 733 0
DWIDTH 11 0
BBX 11 15 0 -3
BITMAP
0000
0000
2100
2100
ffc0
2100
2100
2100
2100
ffc0
2100
2100
0000
0000
0000
ENDCHAR
STARTCHAR ch-24
ENCODING 24
SWIDTH 800 0
DWIDTH 12 0
BBX 12 15 0 -3
BITMAP
0000
71c0
8a20
8a20
8a20
7fc0
0a00
7fc0
8a20
8a20
8a20
71c0
0000
0000
0000
ENDCHAR
STARTCHAR ch-25
ENCODING 25
SWIDTH 600 0
DWIDTH 9 0
BBX 9 15 0 -3
BITMAP
0000
0000
0000
0000
0000
4000
4000
4000
7f00
0000
0000
0000
0000
0000
0000
ENDCHAR
STARTCHAR ch-26
ENCODING 26
SWIDTH 733 0
DWIDTH 11 0
BBX 11 15 0 -3
BITMAP
1f00
1f00
1f00
2480
4440
4440
4740
4040
4040
2080
1f00
1f00
1f00
0000
0000
ENDCHAR
STARTCHAR ch-27
ENCODING 27
SWIDTH 600 0
DWIDTH 9 0
BBX 9 15 0 -3
BITMAP
0000
7f00
2200
2200
1400
1400
0800
1400
1400
2200
2200
7f00
0000
0000
0000
ENDCHAR
STARTCHAR ch-28
ENCODING 28
SWIDTH 600 0
DWIDTH 9 0
BBX 9 15 0 -3
BITMAP
0000
0000
fc00
8000
8000
8000
8000
0000
0000
0000
0000
0000
0000
0000
0000
ENDCHAR
STARTCHAR ch-29
ENCODING 29
SWIDTH 600 0
DWIDTH 9 0
BBX 9 15 0 -3
BITMAP
0000
0000
0f80
0080
0080
0080
0080
0000
0000
0000
0000
0000
0000
0000
0000
ENDCHAR
STARTCHAR ch-30
ENCODING 30
SWIDTH 600 0
DWIDTH 9 0
BBX 9 15 0 -3
BITMAP
0000
0000
0000
0000
0000
0000
0000
8000
8000
8000
8000
8000
f800
0000
0000
ENDCHAR
STARTCHAR ch-31
ENCODING 31
SWIDTH 600 0
DWIDTH 9 0
BBX 9 15 0 -3
BITMAP
0000
0000
0000
0000
0000
0000
0000
0080
0080
0080
0080
0080
0f80
0000
0000
ENDCHAR
STARTCHAR ch-32
ENCODING 32
SWIDTH 600 0
DWIDTH 9 0
BBX 9 15 0 -3
BITMAP
0000
0e00
1600
1000
1000
2000
2000
2000
4000
4000
0000
0000
0000
0000
0000
ENDCHAR
STARTCHAR ch-33
ENCODING 33
SWIDTH 600 0
DWIDTH 9 0
BBX 9 15 0 -3
BITMAP
0000
0000
0000
0000
0000
0200
0200
0400
0400
0400
0800
0800
6800
7000
0000
ENDCHAR
STARTCHAR ch-34
ENCODING 34
SWIDTH 800 0
DWIDTH 12 0
BBX 12 15 0 -3
BITMAP
0000
0000
0000
0000
0000
0e00
3f80
60c0
8020
0000
0000
0000
0000
0000
0000
ENDCHAR
STARTCHAR ch-35
ENCODING 35
SWIDTH 800 0
DWIDTH 12 0
BBX 12 15 0 -3
BITMAP
0000
0000
0000
0000
0000
0000
8020
60c0
3f80
0e00
0000
0000
0000
0000
0000
ENDCHAR
STARTCHAR ch-36
ENCODING 36
SWIDTH 733 0
DWIDTH 11 0
BBX 11 15 0 -3
BITMAP
0000
0000
0000
0000
0000
edc0
1e00
3300
6180
c0c0
0000
0000
0000
0000
0000
ENDCHAR
STARTCHAR ch-37
ENCODING 37
SWIDTH 733 0
DWIDTH 11 0
BBX 11 15 0 -3
BITMAP
0000
0000
0000
0000
0000
f3c0
1800
0c00
07c0
0000
0000
0000
0000
0000
0000
ENDCHAR
STARTCHAR ch-38
ENCODING 38
SWIDTH 800 0
DWIDTH 12 0
BBX 12 15 0 -3
BITMAP
0000
0000
0000
ff00
a380
94c0
8860
94c0
a380
ff00
0000
0000
0000
0000
0000
ENDCHAR
STARTCHAR ch-39
ENCODING 39
SWIDTH 666 0
DWIDTH 10 0
BBX 10 15 0 -3
BITMAP
0000
0000
0000
ff80
a280
9480
8880
9480
a280
ff80
0000
0000
0000
0000
0000
ENDCHAR
STARTCHAR ch-40
ENCODING 40
SWIDTH 666 0
DWIDTH 10 0
BBX 10 15 0 -3
BITMAP
0000
0000
0000
ff80
8080
aa80
9480
8080
be80
ff80
0000
0000
0000
0000
0000
ENDCHAR
STARTCHAR ch-41
ENCODING 41
SWIDTH 600 0
DWIDTH 9 0
BBX 9 15 0 -3
BITMAP
0400
0400
0800
0800
1000
1000
2000
1000
1000
0800
0800
0400
0400
0000
0000
ENDCHAR
STARTCHAR ch-42
ENCODING 42
SWIDTH 600 0
DWIDTH 9 0
BBX 9 15 0 -3
BITMAP
1000
1000
0800
0800
0400
0400
0200
0400
0400
0800
0800
1000
1000
0000
0000
ENDCHAR
STARTCHAR ch-43
ENCODING 43
SWIDTH 800 0
DWIDTH 12 0
BBX 12 15 0 -3
BITMAP
0000
0000
0000
1fe0
38a0
6520
c220
6520
38a0
1fe0
0000
0000
0000
0000
0000
ENDCHAR
STARTCHAR ch-44
ENCODING 44
SWIDTH 800 0
DWIDTH 12 0
BBX 12 15 0 -3
BITMAP
0000
0600
1d00
70c0
c060
c060
c060
c060
c060
c060
61c0
1700
0c00
0000
0000
ENDCHAR
ENDFONT
